<svg viewBox="0 0 1280 720" width="1280" height="720" xmlns="http://www.w3.org/2000/svg" role="img">
<defs><pattern id="dots" width="24" height="24" patternUnits="userSpaceOnUse"><circle cx="2" cy="2" r="1.5" fill="#7E97BD" opacity="0.13"/></pattern></defs>
  <rect x="0.0" y="0.0" width="1280.0" height="720.0" fill="#F4F3F1" stroke="none" stroke-width="0" opacity="1" />
  <rect x="0.0" y="0.0" width="1280.0" height="720.0" fill="url(#dots)" stroke="none" stroke-width="0" opacity="1" />
  <rect x="405.0" y="450.0" width="470.0" height="12.0" rx="6" fill="#1E1E1E" stroke="none" stroke-width="0" opacity="0.06" /><line x1="413.0" y1="450.0" x2="867.0" y2="450.0" stroke="#1E1E1E" stroke-width="2" opacity="0.85" stroke-linecap="round"/>
  <g transform="translate(237.5,-157.5) scale(1.25)">
    <rect x="150.0" y="374.0" width="18.0" height="80.0" rx="9" fill="#DCE2EC" stroke="#1E1E1E" stroke-width="2" opacity="1" /><rect x="168.0" y="390.0" width="12.0" height="42.0" fill="#7E97BD" stroke="none" stroke-width="0" opacity="0.28" /><rect x="162.0" y="430.0" width="58.0" height="20.0" rx="8" fill="#FFFFFF" stroke="#1E1E1E" stroke-width="2" opacity="1" /><rect x="210.0" y="410.0" width="15.0" height="40.0" rx="7" fill="#DCE2EC" stroke="#1E1E1E" stroke-width="2" opacity="1" /><line x1="170.0" y1="450.0" x2="170.0" y2="470.0" stroke="#1E1E1E" stroke-width="2" opacity="1" stroke-linecap="round"/><line x1="216.0" y1="450.0" x2="216.0" y2="470.0" stroke="#1E1E1E" stroke-width="2" opacity="1" stroke-linecap="round"/>
    <rect x="360.0" y="396.0" width="130.0" height="42.0" rx="12" fill="#DCE2EC" stroke="#1E1E1E" stroke-width="2" opacity="1" /><rect x="368.0" y="428.0" width="116.0" height="26.0" rx="10" fill="#FFFFFF" stroke="#1E1E1E" stroke-width="2" opacity="1" /><line x1="426.0" y1="430.0" x2="426.0" y2="452.0" stroke="#1E1E1E" stroke-width="1.6" opacity="0.5" stroke-linecap="round"/><rect x="352.0" y="414.0" width="16.0" height="40.0" rx="7" fill="#DCE2EC" stroke="#1E1E1E" stroke-width="2" opacity="1" /><rect x="484.0" y="414.0" width="16.0" height="40.0" rx="7" fill="#DCE2EC" stroke="#1E1E1E" stroke-width="2" opacity="1" /><line x1="366.0" y1="454.0" x2="366.0" y2="470.0" stroke="#1E1E1E" stroke-width="2" opacity="1" stroke-linecap="round"/><line x1="486.0" y1="454.0" x2="486.0" y2="470.0" stroke="#1E1E1E" stroke-width="2" opacity="1" stroke-linecap="round"/>
    <rect x="268.0" y="440.0" width="50.0" height="12.0" rx="6" fill="#DCE2EC" stroke="#1E1E1E" stroke-width="2" opacity="1" /><line x1="276.0" y1="452.0" x2="276.0" y2="470.0" stroke="#1E1E1E" stroke-width="2" opacity="1" stroke-linecap="round"/><line x1="310.0" y1="452.0" x2="310.0" y2="470.0" stroke="#1E1E1E" stroke-width="2" opacity="1" stroke-linecap="round"/><circle cx="293.0" cy="430.0" r="7.0" fill="#7E97BD" stroke="#1E1E1E" stroke-width="2" opacity="1"/>
    <line x1="300.0" y1="150.0" x2="300.0" y2="206.0" stroke="#1E1E1E" stroke-width="2" opacity="1" stroke-linecap="round"/><polygon points="280.0,206.0 320.0,206.0 311.0,234.0 289.0,234.0" fill="#DCE2EC" stroke="#1E1E1E" stroke-width="2" opacity="1" stroke-linejoin="round"/><circle cx="300.0" cy="240.0" r="5.0" fill="#7E97BD" stroke="none" stroke-width="0" opacity="1"/>
  </g>
</svg>
