<svg viewBox="0 0 1280 720" width="1280" height="720" xmlns="http://www.w3.org/2000/svg" role="img">
<defs><pattern id="dots" width="24" height="24" patternUnits="userSpaceOnUse"><circle cx="2" cy="2" r="1.5" fill="#7E97BD" opacity="0.13"/></pattern></defs>
  <rect x="0.0" y="0.0" width="1280.0" height="720.0" fill="#F4F3F1" stroke="none" stroke-width="0" opacity="1" />
  <rect x="0.0" y="0.0" width="1280.0" height="720.0" fill="url(#dots)" stroke="none" stroke-width="0" opacity="1" />
  <rect x="730.0" y="440.0" width="380.0" height="12.0" rx="6" fill="#1E1E1E" stroke="none" stroke-width="0" opacity="0.06" /><line x1="738.0" y1="440.0" x2="1102.0" y2="440.0" stroke="#1E1E1E" stroke-width="2" opacity="0.85" stroke-linecap="round"/>
  <g transform="translate(598,-46)">
    <path d="M 150 300 Q 322 346 494 300" fill="none" stroke="#1E1E1E" stroke-width="1.6" opacity="0.65" stroke-linecap="round" stroke-linejoin="round"/>
    <polygon points="139.0,300.0 161.0,300.0 150.0,320.0" fill="#7E97BD" stroke="#1E1E1E" stroke-width="1.3" opacity="1" stroke-linejoin="round"/><polygon points="196.0,316.0 218.0,316.0 207.0,336.0" fill="#DCE2EC" stroke="#1E1E1E" stroke-width="1.3" opacity="1" stroke-linejoin="round"/><polygon points="253.0,328.0 275.0,328.0 264.0,348.0" fill="#7E97BD" stroke="#1E1E1E" stroke-width="1.3" opacity="1" stroke-linejoin="round"/><polygon points="311.0,333.0 333.0,333.0 322.0,353.0" fill="#DCE2EC" stroke="#1E1E1E" stroke-width="1.3" opacity="1" stroke-linejoin="round"/><polygon points="369.0,328.0 391.0,328.0 380.0,348.0" fill="#7E97BD" stroke="#1E1E1E" stroke-width="1.3" opacity="1" stroke-linejoin="round"/><polygon points="426.0,316.0 448.0,316.0 437.0,336.0" fill="#DCE2EC" stroke="#1E1E1E" stroke-width="1.3" opacity="1" stroke-linejoin="round"/><polygon points="483.0,300.0 505.0,300.0 494.0,320.0" fill="#7E97BD" stroke="#1E1E1E" stroke-width="1.3" opacity="1" stroke-linejoin="round"/>
    <rect x="250.0" y="452.0" width="144.0" height="26.0" rx="13" fill="#DCE2EC" stroke="#1E1E1E" stroke-width="2" opacity="1" />
    <rect x="316.0" y="404.0" width="12.0" height="50.0" fill="#FFFFFF" stroke="#1E1E1E" stroke-width="2" opacity="1" />
    <rect x="288.0" y="396.0" width="68.0" height="16.0" rx="8" fill="#DCE2EC" stroke="#1E1E1E" stroke-width="2" opacity="1" />
    <circle cx="322.0" cy="390.0" r="7.0" fill="#7E97BD" stroke="#1E1E1E" stroke-width="2" opacity="1"/>
    <path d="M 316 400 Q 292 426 300 450" fill="none" stroke="#7E97BD" stroke-width="2" opacity="0.7" stroke-linecap="round" stroke-linejoin="round"/>
    <path d="M 328 400 Q 352 426 344 450" fill="none" stroke="#7E97BD" stroke-width="2" opacity="0.7" stroke-linecap="round" stroke-linejoin="round"/>
    <circle cx="300.0" cy="452.0" r="3.0" fill="#7E97BD" stroke="none" stroke-width="0" opacity="0.8"/><circle cx="344.0" cy="452.0" r="3.0" fill="#7E97BD" stroke="none" stroke-width="0" opacity="0.8"/><circle cx="322.0" cy="384.0" r="3.2" fill="#7E97BD" stroke="none" stroke-width="0" opacity="1"/>
  </g>
</svg>
