<svg viewBox="0 0 1280 720" width="1280" height="720" xmlns="http://www.w3.org/2000/svg" role="img">
<defs><pattern id="dots" width="24" height="24" patternUnits="userSpaceOnUse"><circle cx="2" cy="2" r="1.5" fill="#7E97BD" opacity="0.13"/></pattern></defs>
  <rect x="0.0" y="0.0" width="1280.0" height="720.0" fill="#F4F3F1" stroke="none" stroke-width="0" opacity="1" />
  <rect x="0.0" y="0.0" width="1280.0" height="720.0" fill="url(#dots)" stroke="none" stroke-width="0" opacity="1" />
  <rect x="405.0" y="450.0" width="470.0" height="12.0" rx="6" fill="#1E1E1E" stroke="none" stroke-width="0" opacity="0.06" /><line x1="413.0" y1="450.0" x2="867.0" y2="450.0" stroke="#1E1E1E" stroke-width="2" opacity="0.85" stroke-linecap="round"/>
  <g transform="translate(237.5,-157.5) scale(1.25)">
    <rect x="150.0" y="452.0" width="340.0" height="16.0" rx="5" fill="#DCE2EC" stroke="#1E1E1E" stroke-width="2" opacity="1" /><line x1="184.0" y1="468.0" x2="184.0" y2="486.0" stroke="#1E1E1E" stroke-width="2" opacity="1" stroke-linecap="round"/><line x1="456.0" y1="468.0" x2="456.0" y2="486.0" stroke="#1E1E1E" stroke-width="2" opacity="1" stroke-linecap="round"/>
    <line x1="224.0" y1="370.0" x2="224.0" y2="354.0" stroke="#7E97BD" stroke-width="2" opacity="0.6" stroke-linecap="round"/><line x1="244.9" y1="377.2" x2="254.8" y2="364.6" stroke="#7E97BD" stroke-width="2" opacity="0.6" stroke-linecap="round"/><line x1="203.1" y1="377.2" x2="193.2" y2="364.6" stroke="#7E97BD" stroke-width="2" opacity="0.6" stroke-linecap="round"/>
    <circle cx="224.0" cy="404.0" r="26.0" fill="#FFFFFF" stroke="#1E1E1E" stroke-width="2.5" opacity="1"/><circle cx="224.0" cy="404.0" r="26.0" fill="#7E97BD" stroke="none" stroke-width="0" opacity="0.16"/><path d="M 215 400 q 9 11 18 0" fill="none" stroke="#7E97BD" stroke-width="2" opacity="1" stroke-linecap="round" stroke-linejoin="round"/><rect x="214.0" y="430.0" width="20.0" height="22.0" fill="#DCE2EC" stroke="#1E1E1E" stroke-width="2" opacity="1" /><line x1="214.0" y1="437.0" x2="234.0" y2="437.0" stroke="#1E1E1E" stroke-width="1.2" opacity="0.5" stroke-linecap="round"/><line x1="214.0" y1="444.0" x2="234.0" y2="444.0" stroke="#1E1E1E" stroke-width="1.2" opacity="0.5" stroke-linecap="round"/>
    <path d="M 308 356 L 308 388 L 290 442 Q 286 452 300 452 L 344 452 Q 358 452 354 442 L 336 388 L 336 356 Z" fill="#DCE2EC" stroke="#1E1E1E" stroke-width="2.5" opacity="1" stroke-linecap="round" stroke-linejoin="round"/><rect x="304.0" y="348.0" width="36.0" height="10.0" fill="#FFFFFF" stroke="#1E1E1E" stroke-width="2" opacity="1" /><path d="M 295 428 Q 322 434 349 428" fill="none" stroke="#7E97BD" stroke-width="3" opacity="1" stroke-linecap="round" stroke-linejoin="round"/><circle cx="312.0" cy="438.0" r="3.4" fill="#7E97BD" stroke="none" stroke-width="0" opacity="1"/><circle cx="331.0" cy="434.0" r="2.6" fill="#7E97BD" stroke="none" stroke-width="0" opacity="1"/>
    <rect x="416.0" y="397.0" width="8.0" height="11.0" fill="#FFFFFF" stroke="#1E1E1E" stroke-width="2" opacity="1" transform="rotate(0 420 424)"/><rect x="416.0" y="397.0" width="8.0" height="11.0" fill="#FFFFFF" stroke="#1E1E1E" stroke-width="2" opacity="1" transform="rotate(45 420 424)"/><rect x="416.0" y="397.0" width="8.0" height="11.0" fill="#FFFFFF" stroke="#1E1E1E" stroke-width="2" opacity="1" transform="rotate(90 420 424)"/><rect x="416.0" y="397.0" width="8.0" height="11.0" fill="#FFFFFF" stroke="#1E1E1E" stroke-width="2" opacity="1" transform="rotate(135 420 424)"/><rect x="416.0" y="397.0" width="8.0" height="11.0" fill="#FFFFFF" stroke="#1E1E1E" stroke-width="2" opacity="1" transform="rotate(180 420 424)"/><rect x="416.0" y="397.0" width="8.0" height="11.0" fill="#FFFFFF" stroke="#1E1E1E" stroke-width="2" opacity="1" transform="rotate(225 420 424)"/><rect x="416.0" y="397.0" width="8.0" height="11.0" fill="#FFFFFF" stroke="#1E1E1E" stroke-width="2" opacity="1" transform="rotate(270 420 424)"/><rect x="416.0" y="397.0" width="8.0" height="11.0" fill="#FFFFFF" stroke="#1E1E1E" stroke-width="2" opacity="1" transform="rotate(315 420 424)"/><circle cx="420.0" cy="424.0" r="20.0" fill="#FFFFFF" stroke="#1E1E1E" stroke-width="2.5" opacity="1"/><circle cx="420.0" cy="424.0" r="7.0" fill="#7E97BD" stroke="none" stroke-width="0" opacity="1"/>
  </g>
</svg>
