<svg viewBox="0 0 1280 720" width="1280" height="720" xmlns="http://www.w3.org/2000/svg" role="img">
<defs><pattern id="dots" width="24" height="24" patternUnits="userSpaceOnUse"><circle cx="2" cy="2" r="1.5" fill="#7E97BD" opacity="0.13"/></pattern></defs>
  <rect x="0.0" y="0.0" width="1280.0" height="720.0" fill="#F4F3F1" stroke="none" stroke-width="0" opacity="1" />
  <rect x="0.0" y="0.0" width="1280.0" height="720.0" fill="url(#dots)" stroke="none" stroke-width="0" opacity="1" />
  <rect x="730.0" y="440.0" width="380.0" height="12.0" rx="6" fill="#1E1E1E" stroke="none" stroke-width="0" opacity="0.06" /><line x1="738.0" y1="440.0" x2="1102.0" y2="440.0" stroke="#1E1E1E" stroke-width="2" opacity="0.85" stroke-linecap="round"/>
  <g transform="translate(598,-46)">
    <polygon points="180.0,296.0 322.0,214.0 464.0,296.0" fill="#DCE2EC" stroke="#1E1E1E" stroke-width="2.5" opacity="1" stroke-linejoin="round"/>
    <circle cx="322.0" cy="262.0" r="17.0" fill="#7E97BD" stroke="none" stroke-width="0" opacity="1"/><circle cx="322.0" cy="262.0" r="17.0" fill="none" stroke="#1E1E1E" stroke-width="2" opacity="1"/>
    <line x1="322.0" y1="214.0" x2="322.0" y2="188.0" stroke="#1E1E1E" stroke-width="2.5" opacity="1" stroke-linecap="round"/><polygon points="322.0,190.0 352.0,198.0 322.0,206.0" fill="#7E97BD" stroke="#1E1E1E" stroke-width="1.5" opacity="1" stroke-linejoin="round"/>
    <rect x="190.0" y="296.0" width="264.0" height="22.0" fill="#FFFFFF" stroke="#1E1E1E" stroke-width="2" opacity="1" />
    <rect x="201.0" y="322.0" width="26.0" height="150.0" fill="#FFFFFF" stroke="#1E1E1E" stroke-width="2" opacity="1" /><rect x="197.0" y="316.0" width="34.0" height="8.0" fill="#DCE2EC" stroke="#1E1E1E" stroke-width="2" opacity="1" /><line x1="214.0" y1="330.0" x2="214.0" y2="466.0" stroke="#1E1E1E" stroke-width="1.2" opacity="0.35" stroke-linecap="round"/><rect x="255.0" y="322.0" width="26.0" height="150.0" fill="#FFFFFF" stroke="#1E1E1E" stroke-width="2" opacity="1" /><rect x="251.0" y="316.0" width="34.0" height="8.0" fill="#DCE2EC" stroke="#1E1E1E" stroke-width="2" opacity="1" /><line x1="268.0" y1="330.0" x2="268.0" y2="466.0" stroke="#1E1E1E" stroke-width="1.2" opacity="0.35" stroke-linecap="round"/><rect x="309.0" y="322.0" width="26.0" height="150.0" fill="#FFFFFF" stroke="#1E1E1E" stroke-width="2" opacity="1" /><rect x="305.0" y="316.0" width="34.0" height="8.0" fill="#DCE2EC" stroke="#1E1E1E" stroke-width="2" opacity="1" /><line x1="322.0" y1="330.0" x2="322.0" y2="466.0" stroke="#1E1E1E" stroke-width="1.2" opacity="0.35" stroke-linecap="round"/><rect x="363.0" y="322.0" width="26.0" height="150.0" fill="#FFFFFF" stroke="#1E1E1E" stroke-width="2" opacity="1" /><rect x="359.0" y="316.0" width="34.0" height="8.0" fill="#DCE2EC" stroke="#1E1E1E" stroke-width="2" opacity="1" /><line x1="376.0" y1="330.0" x2="376.0" y2="466.0" stroke="#1E1E1E" stroke-width="1.2" opacity="0.35" stroke-linecap="round"/><rect x="417.0" y="322.0" width="26.0" height="150.0" fill="#FFFFFF" stroke="#1E1E1E" stroke-width="2" opacity="1" /><rect x="413.0" y="316.0" width="34.0" height="8.0" fill="#DCE2EC" stroke="#1E1E1E" stroke-width="2" opacity="1" /><line x1="430.0" y1="330.0" x2="430.0" y2="466.0" stroke="#1E1E1E" stroke-width="1.2" opacity="0.35" stroke-linecap="round"/>
    <rect x="176.0" y="472.0" width="292.0" height="12.0" fill="#DCE2EC" stroke="#1E1E1E" stroke-width="2" opacity="1" /><rect x="158.0" y="484.0" width="328.0" height="12.0" fill="#FFFFFF" stroke="#1E1E1E" stroke-width="2" opacity="1" />
  </g>
</svg>
