<svg viewBox="0 0 1280 720" width="1280" height="720" xmlns="http://www.w3.org/2000/svg" role="img">
<defs><pattern id="dots" width="24" height="24" patternUnits="userSpaceOnUse"><circle cx="2" cy="2" r="1.5" fill="#7E97BD" opacity="0.13"/></pattern></defs>
  <rect x="0.0" y="0.0" width="1280.0" height="720.0" fill="#F4F3F1" stroke="none" stroke-width="0" opacity="1" />
  <rect x="0.0" y="0.0" width="1280.0" height="720.0" fill="url(#dots)" stroke="none" stroke-width="0" opacity="1" />
  <rect x="730.0" y="440.0" width="380.0" height="12.0" rx="6" fill="#1E1E1E" stroke="none" stroke-width="0" opacity="0.06" /><line x1="738.0" y1="440.0" x2="1102.0" y2="440.0" stroke="#1E1E1E" stroke-width="2" opacity="0.85" stroke-linecap="round"/>
  <g transform="translate(598,-46)">
    <circle cx="322.0" cy="190.0" r="12.0" fill="#7E97BD" stroke="#1E1E1E" stroke-width="2" opacity="1"/>
    <polygon points="322.0,196.0 230.0,300.0 414.0,300.0" fill="#DCE2EC" stroke="none" stroke-width="0" opacity="0.55" stroke-linejoin="round"/>
    <rect x="196.0" y="288.0" width="252.0" height="14.0" rx="4" fill="#DCE2EC" stroke="#1E1E1E" stroke-width="2" opacity="1" />
    <rect x="214.0" y="300.0" width="216.0" height="118.0" rx="6" fill="#FFFFFF" stroke="#1E1E1E" stroke-width="2.5" opacity="1" />
    <path d="M 196 300 q 10 40 0 80" fill="none" stroke="#1E1E1E" stroke-width="1.4" opacity="0.4" stroke-linecap="round" stroke-linejoin="round"/><path d="M 238 300 q 10 40 0 80" fill="none" stroke="#1E1E1E" stroke-width="1.4" opacity="0.4" stroke-linecap="round" stroke-linejoin="round"/><path d="M 280 300 q 10 40 0 80" fill="none" stroke="#1E1E1E" stroke-width="1.4" opacity="0.4" stroke-linecap="round" stroke-linejoin="round"/><path d="M 322 300 q 10 40 0 80" fill="none" stroke="#1E1E1E" stroke-width="1.4" opacity="0.4" stroke-linecap="round" stroke-linejoin="round"/><path d="M 364 300 q 10 40 0 80" fill="none" stroke="#1E1E1E" stroke-width="1.4" opacity="0.4" stroke-linecap="round" stroke-linejoin="round"/><path d="M 406 300 q 10 40 0 80" fill="none" stroke="#1E1E1E" stroke-width="1.4" opacity="0.4" stroke-linecap="round" stroke-linejoin="round"/><path d="M 448 300 q 10 40 0 80" fill="none" stroke="#1E1E1E" stroke-width="1.4" opacity="0.4" stroke-linecap="round" stroke-linejoin="round"/>
    <polygon points="310.0,338.0 310.0,380.0 346.0,359.0" fill="#7E97BD" stroke="none" stroke-width="0" opacity="1" stroke-linejoin="round"/>
    <rect x="224.0" y="440.0" width="26.0" height="14.0" rx="5" fill="#DCE2EC" stroke="#1E1E1E" stroke-width="1.6" opacity="1" /><rect x="260.0" y="440.0" width="26.0" height="14.0" rx="5" fill="#DCE2EC" stroke="#1E1E1E" stroke-width="1.6" opacity="1" /><rect x="296.0" y="440.0" width="26.0" height="14.0" rx="5" fill="#DCE2EC" stroke="#1E1E1E" stroke-width="1.6" opacity="1" /><rect x="332.0" y="440.0" width="26.0" height="14.0" rx="5" fill="#DCE2EC" stroke="#1E1E1E" stroke-width="1.6" opacity="1" /><rect x="368.0" y="440.0" width="26.0" height="14.0" rx="5" fill="#DCE2EC" stroke="#1E1E1E" stroke-width="1.6" opacity="1" /><rect x="404.0" y="440.0" width="26.0" height="14.0" rx="5" fill="#DCE2EC" stroke="#1E1E1E" stroke-width="1.6" opacity="1" /><rect x="242.0" y="468.0" width="26.0" height="14.0" rx="5" fill="#DCE2EC" stroke="#1E1E1E" stroke-width="1.6" opacity="1" /><rect x="278.0" y="468.0" width="26.0" height="14.0" rx="5" fill="#DCE2EC" stroke="#1E1E1E" stroke-width="1.6" opacity="1" /><rect x="314.0" y="468.0" width="26.0" height="14.0" rx="5" fill="#DCE2EC" stroke="#1E1E1E" stroke-width="1.6" opacity="1" /><rect x="350.0" y="468.0" width="26.0" height="14.0" rx="5" fill="#DCE2EC" stroke="#1E1E1E" stroke-width="1.6" opacity="1" /><rect x="386.0" y="468.0" width="26.0" height="14.0" rx="5" fill="#DCE2EC" stroke="#1E1E1E" stroke-width="1.6" opacity="1" /><rect x="422.0" y="468.0" width="26.0" height="14.0" rx="5" fill="#DCE2EC" stroke="#1E1E1E" stroke-width="1.6" opacity="1" />
  </g>
</svg>
