<svg viewBox="0 0 640 640" width="640" height="640" xmlns="http://www.w3.org/2000/svg" role="img">
  <defs><clipPath id="card"><rect x="24" y="24" width="592" height="592" rx="30"/></clipPath><pattern id="dots" width="24" height="24" patternUnits="userSpaceOnUse"><circle cx="2" cy="2" r="1.5" fill="#3E6FB0" opacity="0.13"/></pattern></defs>
  <rect x="24.0" y="24.0" width="592.0" height="592.0" rx="30" fill="#F4F3F1" stroke="none" stroke-width="0" opacity="1" />
  <g clip-path="url(#card)">
    <rect x="24.0" y="24.0" width="592.0" height="592.0" fill="url(#dots)" stroke="none" stroke-width="0" opacity="1" />
    
    <rect x="70.0" y="486.0" width="500.0" height="12.0" rx="6" fill="#1B1D21" stroke="none" stroke-width="0" opacity="0.06" /><line x1="78.0" y1="486.0" x2="562.0" y2="486.0" stroke="#1B1D21" stroke-width="2" opacity="0.85" stroke-linecap="round"/>
    <polygon points="180.0,296.0 322.0,214.0 464.0,296.0" fill="#CBD9EC" stroke="#1B1D21" stroke-width="2.5" opacity="1" stroke-linejoin="round"/>
    <circle cx="322.0" cy="262.0" r="17.0" fill="#3E6FB0" stroke="none" stroke-width="0" opacity="1"/><circle cx="322.0" cy="262.0" r="17.0" fill="none" stroke="#1B1D21" stroke-width="2" opacity="1"/>
    <line x1="322.0" y1="214.0" x2="322.0" y2="188.0" stroke="#1B1D21" stroke-width="2.5" opacity="1" stroke-linecap="round"/><polygon points="322.0,190.0 352.0,198.0 322.0,206.0" fill="#3E6FB0" stroke="#1B1D21" stroke-width="1.5" opacity="1" stroke-linejoin="round"/>
    <rect x="190.0" y="296.0" width="264.0" height="22.0" fill="#FFFFFF" stroke="#1B1D21" stroke-width="2" opacity="1" />
    <rect x="201.0" y="322.0" width="26.0" height="150.0" fill="#FFFFFF" stroke="#1B1D21" stroke-width="2" opacity="1" /><rect x="197.0" y="316.0" width="34.0" height="8.0" fill="#CBD9EC" stroke="#1B1D21" stroke-width="2" opacity="1" /><line x1="214.0" y1="330.0" x2="214.0" y2="466.0" stroke="#1B1D21" stroke-width="1.2" opacity="0.35" stroke-linecap="round"/><rect x="255.0" y="322.0" width="26.0" height="150.0" fill="#FFFFFF" stroke="#1B1D21" stroke-width="2" opacity="1" /><rect x="251.0" y="316.0" width="34.0" height="8.0" fill="#CBD9EC" stroke="#1B1D21" stroke-width="2" opacity="1" /><line x1="268.0" y1="330.0" x2="268.0" y2="466.0" stroke="#1B1D21" stroke-width="1.2" opacity="0.35" stroke-linecap="round"/><rect x="309.0" y="322.0" width="26.0" height="150.0" fill="#FFFFFF" stroke="#1B1D21" stroke-width="2" opacity="1" /><rect x="305.0" y="316.0" width="34.0" height="8.0" fill="#CBD9EC" stroke="#1B1D21" stroke-width="2" opacity="1" /><line x1="322.0" y1="330.0" x2="322.0" y2="466.0" stroke="#1B1D21" stroke-width="1.2" opacity="0.35" stroke-linecap="round"/><rect x="363.0" y="322.0" width="26.0" height="150.0" fill="#FFFFFF" stroke="#1B1D21" stroke-width="2" opacity="1" /><rect x="359.0" y="316.0" width="34.0" height="8.0" fill="#CBD9EC" stroke="#1B1D21" stroke-width="2" opacity="1" /><line x1="376.0" y1="330.0" x2="376.0" y2="466.0" stroke="#1B1D21" stroke-width="1.2" opacity="0.35" stroke-linecap="round"/><rect x="417.0" y="322.0" width="26.0" height="150.0" fill="#FFFFFF" stroke="#1B1D21" stroke-width="2" opacity="1" /><rect x="413.0" y="316.0" width="34.0" height="8.0" fill="#CBD9EC" stroke="#1B1D21" stroke-width="2" opacity="1" /><line x1="430.0" y1="330.0" x2="430.0" y2="466.0" stroke="#1B1D21" stroke-width="1.2" opacity="0.35" stroke-linecap="round"/>
    <rect x="176.0" y="472.0" width="292.0" height="12.0" fill="#CBD9EC" stroke="#1B1D21" stroke-width="2" opacity="1" /><rect x="158.0" y="484.0" width="328.0" height="12.0" fill="#FFFFFF" stroke="#1B1D21" stroke-width="2" opacity="1" />
  </g>
  <rect x="24.0" y="24.0" width="592.0" height="592.0" rx="30" fill="none" stroke="#1B1D21" stroke-width="1.5" opacity="0.14" />
</svg>
