<svg viewBox="0 0 640 640" width="640" height="640" xmlns="http://www.w3.org/2000/svg" role="img">
  <defs><clipPath id="card"><rect x="24" y="24" width="592" height="592" rx="30"/></clipPath><pattern id="dots" width="24" height="24" patternUnits="userSpaceOnUse"><circle cx="2" cy="2" r="1.5" fill="#7E97BD" opacity="0.13"/></pattern></defs>
  <rect x="24.0" y="24.0" width="592.0" height="592.0" rx="30" fill="#EEEBE0" stroke="none" stroke-width="0" opacity="1" />
  <g clip-path="url(#card)">
    <rect x="24.0" y="24.0" width="592.0" height="592.0" fill="url(#dots)" stroke="none" stroke-width="0" opacity="1" />
    
    <rect x="70.0" y="486.0" width="500.0" height="12.0" rx="6" fill="#1E1E1E" stroke="none" stroke-width="0" opacity="0.06" /><line x1="78.0" y1="486.0" x2="562.0" y2="486.0" stroke="#1E1E1E" stroke-width="2" opacity="0.85" stroke-linecap="round"/>
    <ellipse cx="322" cy="478" rx="112" ry="28" fill="#DCE2EC" opacity="0.42"/><ellipse cx="322" cy="478" rx="112" ry="28" fill="none" stroke="#7E97BD" stroke-width="2" stroke-dasharray="5 9" opacity="0.7"/>
    <path d="M 322 362 q 22 -20 44 -14" fill="none" stroke="#7E97BD" stroke-width="1.6" stroke-dasharray="3 6" opacity="0.55"/>
    <line x1="322.0" y1="470.0" x2="322.0" y2="362.0" stroke="#1E1E1E" stroke-width="2.6" opacity="1" stroke-linecap="round"/>
    <path d="M 322 374 q -28 -6 -32 -30 q 26 2 32 24" fill="#DCE2EC" stroke="#1E1E1E" stroke-width="1.8" opacity="1" stroke-linecap="round" stroke-linejoin="round"/><path d="M 322 382 q 28 -6 32 -30 q -26 2 -32 24" fill="#DCE2EC" stroke="#1E1E1E" stroke-width="1.8" opacity="1" stroke-linecap="round" stroke-linejoin="round"/>
    <circle cx="322.0" cy="362.0" r="5.0" fill="#7E97BD" stroke="none" stroke-width="0" opacity="1"/>
    <circle cx="264.0" cy="430.0" r="3.0" fill="#7E97BD" stroke="none" stroke-width="0" opacity="0.7"/><circle cx="278.0" cy="396.0" r="2.4" fill="#7E97BD" stroke="none" stroke-width="0" opacity="0.7"/><circle cx="292.0" cy="368.0" r="2.0" fill="#7E97BD" stroke="none" stroke-width="0" opacity="0.7"/><circle cx="374.0" cy="420.0" r="3.0" fill="#7E97BD" stroke="none" stroke-width="0" opacity="0.7"/><circle cx="362.0" cy="388.0" r="2.4" fill="#7E97BD" stroke="none" stroke-width="0" opacity="0.7"/><circle cx="386.0" cy="396.0" r="2.0" fill="#7E97BD" stroke="none" stroke-width="0" opacity="0.7"/>
    <line x1="261.0" y1="362.0" x2="275.0" y2="362.0" stroke="#7E97BD" stroke-width="2" opacity="1" stroke-linecap="round"/><line x1="268.0" y1="355.0" x2="268.0" y2="369.0" stroke="#7E97BD" stroke-width="2" opacity="1" stroke-linecap="round"/><line x1="375.0" y1="372.0" x2="389.0" y2="372.0" stroke="#7E97BD" stroke-width="2" opacity="1" stroke-linecap="round"/><line x1="382.0" y1="365.0" x2="382.0" y2="379.0" stroke="#7E97BD" stroke-width="2" opacity="1" stroke-linecap="round"/>
  </g>
  <rect x="24.0" y="24.0" width="592.0" height="592.0" rx="30" fill="none" stroke="#1E1E1E" stroke-width="1.5" opacity="0.14" />
</svg>
