<svg viewBox="0 0 640 640" width="640" height="640" xmlns="http://www.w3.org/2000/svg" role="img">
  <defs><clipPath id="card"><rect x="24" y="24" width="592" height="592" rx="30"/></clipPath><pattern id="dots" width="24" height="24" patternUnits="userSpaceOnUse"><circle cx="2" cy="2" r="1.5" fill="#7E97BD" opacity="0.13"/></pattern></defs>
  <rect x="24.0" y="24.0" width="592.0" height="592.0" rx="30" fill="#EEEBE0" stroke="none" stroke-width="0" opacity="1" />
  <g clip-path="url(#card)">
    <rect x="24.0" y="24.0" width="592.0" height="592.0" fill="url(#dots)" stroke="none" stroke-width="0" opacity="1" />
    
    <rect x="70.0" y="486.0" width="500.0" height="12.0" rx="6" fill="#1E1E1E" stroke="none" stroke-width="0" opacity="0.06" /><line x1="78.0" y1="486.0" x2="562.0" y2="486.0" stroke="#1E1E1E" stroke-width="2" opacity="0.85" stroke-linecap="round"/>
    <circle cx="322.0" cy="190.0" r="12.0" fill="#7E97BD" stroke="#1E1E1E" stroke-width="2" opacity="1"/>
    <polygon points="322.0,196.0 230.0,300.0 414.0,300.0" fill="#DCE2EC" stroke="none" stroke-width="0" opacity="0.55" stroke-linejoin="round"/>
    <rect x="196.0" y="288.0" width="252.0" height="14.0" rx="4" fill="#DCE2EC" stroke="#1E1E1E" stroke-width="2" opacity="1" />
    <rect x="214.0" y="300.0" width="216.0" height="118.0" rx="6" fill="#FFFFFF" stroke="#1E1E1E" stroke-width="2.5" opacity="1" />
    <path d="M 196 300 q 10 40 0 80" fill="none" stroke="#1E1E1E" stroke-width="1.4" opacity="0.4" stroke-linecap="round" stroke-linejoin="round"/><path d="M 238 300 q 10 40 0 80" fill="none" stroke="#1E1E1E" stroke-width="1.4" opacity="0.4" stroke-linecap="round" stroke-linejoin="round"/><path d="M 280 300 q 10 40 0 80" fill="none" stroke="#1E1E1E" stroke-width="1.4" opacity="0.4" stroke-linecap="round" stroke-linejoin="round"/><path d="M 322 300 q 10 40 0 80" fill="none" stroke="#1E1E1E" stroke-width="1.4" opacity="0.4" stroke-linecap="round" stroke-linejoin="round"/><path d="M 364 300 q 10 40 0 80" fill="none" stroke="#1E1E1E" stroke-width="1.4" opacity="0.4" stroke-linecap="round" stroke-linejoin="round"/><path d="M 406 300 q 10 40 0 80" fill="none" stroke="#1E1E1E" stroke-width="1.4" opacity="0.4" stroke-linecap="round" stroke-linejoin="round"/><path d="M 448 300 q 10 40 0 80" fill="none" stroke="#1E1E1E" stroke-width="1.4" opacity="0.4" stroke-linecap="round" stroke-linejoin="round"/>
    <polygon points="310.0,338.0 310.0,380.0 346.0,359.0" fill="#7E97BD" stroke="none" stroke-width="0" opacity="1" stroke-linejoin="round"/>
    <rect x="224.0" y="440.0" width="26.0" height="14.0" rx="5" fill="#DCE2EC" stroke="#1E1E1E" stroke-width="1.6" opacity="1" /><rect x="260.0" y="440.0" width="26.0" height="14.0" rx="5" fill="#DCE2EC" stroke="#1E1E1E" stroke-width="1.6" opacity="1" /><rect x="296.0" y="440.0" width="26.0" height="14.0" rx="5" fill="#DCE2EC" stroke="#1E1E1E" stroke-width="1.6" opacity="1" /><rect x="332.0" y="440.0" width="26.0" height="14.0" rx="5" fill="#DCE2EC" stroke="#1E1E1E" stroke-width="1.6" opacity="1" /><rect x="368.0" y="440.0" width="26.0" height="14.0" rx="5" fill="#DCE2EC" stroke="#1E1E1E" stroke-width="1.6" opacity="1" /><rect x="404.0" y="440.0" width="26.0" height="14.0" rx="5" fill="#DCE2EC" stroke="#1E1E1E" stroke-width="1.6" opacity="1" /><rect x="242.0" y="468.0" width="26.0" height="14.0" rx="5" fill="#DCE2EC" stroke="#1E1E1E" stroke-width="1.6" opacity="1" /><rect x="278.0" y="468.0" width="26.0" height="14.0" rx="5" fill="#DCE2EC" stroke="#1E1E1E" stroke-width="1.6" opacity="1" /><rect x="314.0" y="468.0" width="26.0" height="14.0" rx="5" fill="#DCE2EC" stroke="#1E1E1E" stroke-width="1.6" opacity="1" /><rect x="350.0" y="468.0" width="26.0" height="14.0" rx="5" fill="#DCE2EC" stroke="#1E1E1E" stroke-width="1.6" opacity="1" /><rect x="386.0" y="468.0" width="26.0" height="14.0" rx="5" fill="#DCE2EC" stroke="#1E1E1E" stroke-width="1.6" opacity="1" /><rect x="422.0" y="468.0" width="26.0" height="14.0" rx="5" fill="#DCE2EC" stroke="#1E1E1E" stroke-width="1.6" opacity="1" />
  </g>
  <rect x="24.0" y="24.0" width="592.0" height="592.0" rx="30" fill="none" stroke="#1E1E1E" stroke-width="1.5" opacity="0.14" />
</svg>
