<svg viewBox="0 0 640 640" width="640" height="640" xmlns="http://www.w3.org/2000/svg" role="img">
  <defs><clipPath id="card"><rect x="24" y="24" width="592" height="592" rx="30"/></clipPath><pattern id="dots" width="24" height="24" patternUnits="userSpaceOnUse"><circle cx="2" cy="2" r="1.5" fill="#0E6EF4" opacity="0.13"/></pattern></defs>
  <rect x="24.0" y="24.0" width="592.0" height="592.0" rx="30" fill="#EEEBE0" stroke="none" stroke-width="0" opacity="1" />
  <g clip-path="url(#card)">
    <rect x="24.0" y="24.0" width="592.0" height="592.0" fill="url(#dots)" stroke="none" stroke-width="0" opacity="1" />
    
    <rect x="70.0" y="486.0" width="500.0" height="12.0" rx="6" fill="#1E1E1E" stroke="none" stroke-width="0" opacity="0.06" /><line x1="78.0" y1="486.0" x2="562.0" y2="486.0" stroke="#1E1E1E" stroke-width="2" opacity="0.85" stroke-linecap="round"/>
    <path d="M 150 300 Q 322 346 494 300" fill="none" stroke="#1E1E1E" stroke-width="1.6" opacity="0.65" stroke-linecap="round" stroke-linejoin="round"/>
    <polygon points="139.0,300.0 161.0,300.0 150.0,320.0" fill="#0E6EF4" stroke="#1E1E1E" stroke-width="1.3" opacity="1" stroke-linejoin="round"/><polygon points="196.0,316.0 218.0,316.0 207.0,336.0" fill="#D2E5FF" stroke="#1E1E1E" stroke-width="1.3" opacity="1" stroke-linejoin="round"/><polygon points="253.0,328.0 275.0,328.0 264.0,348.0" fill="#0E6EF4" stroke="#1E1E1E" stroke-width="1.3" opacity="1" stroke-linejoin="round"/><polygon points="311.0,333.0 333.0,333.0 322.0,353.0" fill="#D2E5FF" stroke="#1E1E1E" stroke-width="1.3" opacity="1" stroke-linejoin="round"/><polygon points="369.0,328.0 391.0,328.0 380.0,348.0" fill="#0E6EF4" stroke="#1E1E1E" stroke-width="1.3" opacity="1" stroke-linejoin="round"/><polygon points="426.0,316.0 448.0,316.0 437.0,336.0" fill="#D2E5FF" stroke="#1E1E1E" stroke-width="1.3" opacity="1" stroke-linejoin="round"/><polygon points="483.0,300.0 505.0,300.0 494.0,320.0" fill="#0E6EF4" stroke="#1E1E1E" stroke-width="1.3" opacity="1" stroke-linejoin="round"/>
    <rect x="250.0" y="452.0" width="144.0" height="26.0" rx="13" fill="#D2E5FF" stroke="#1E1E1E" stroke-width="2" opacity="1" />
    <rect x="316.0" y="404.0" width="12.0" height="50.0" fill="#FFFFFF" stroke="#1E1E1E" stroke-width="2" opacity="1" />
    <rect x="288.0" y="396.0" width="68.0" height="16.0" rx="8" fill="#D2E5FF" stroke="#1E1E1E" stroke-width="2" opacity="1" />
    <circle cx="322.0" cy="390.0" r="7.0" fill="#0E6EF4" stroke="#1E1E1E" stroke-width="2" opacity="1"/>
    <path d="M 316 400 Q 292 426 300 450" fill="none" stroke="#0E6EF4" stroke-width="2" opacity="0.7" stroke-linecap="round" stroke-linejoin="round"/>
    <path d="M 328 400 Q 352 426 344 450" fill="none" stroke="#0E6EF4" stroke-width="2" opacity="0.7" stroke-linecap="round" stroke-linejoin="round"/>
    <circle cx="300.0" cy="452.0" r="3.0" fill="#0E6EF4" stroke="none" stroke-width="0" opacity="0.8"/><circle cx="344.0" cy="452.0" r="3.0" fill="#0E6EF4" stroke="none" stroke-width="0" opacity="0.8"/><circle cx="322.0" cy="384.0" r="3.2" fill="#0E6EF4" stroke="none" stroke-width="0" opacity="1"/>
  </g>
  <rect x="24.0" y="24.0" width="592.0" height="592.0" rx="30" fill="none" stroke="#1E1E1E" stroke-width="1.5" opacity="0.14" />
</svg>
