<svg viewBox="0 0 640 640" width="640" height="640" xmlns="http://www.w3.org/2000/svg" role="img">
  <defs><clipPath id="card"><rect x="24" y="24" width="592" height="592" rx="30"/></clipPath><pattern id="dots" width="24" height="24" patternUnits="userSpaceOnUse"><circle cx="2" cy="2" r="1.5" fill="#7A85A8" opacity="0.13"/></pattern></defs>
  <rect x="24.0" y="24.0" width="592.0" height="592.0" rx="30" fill="#EEEBE0" stroke="none" stroke-width="0" opacity="1" />
  <g clip-path="url(#card)">
    <rect x="24.0" y="24.0" width="592.0" height="592.0" fill="url(#dots)" stroke="none" stroke-width="0" opacity="1" />
    
    <rect x="70.0" y="486.0" width="500.0" height="12.0" rx="6" fill="#1E1E1E" stroke="none" stroke-width="0" opacity="0.06" /><line x1="78.0" y1="486.0" x2="562.0" y2="486.0" stroke="#1E1E1E" stroke-width="2" opacity="0.85" stroke-linecap="round"/>
    <path d="M 250 434 C 226 427 208 431 196 444 L 202 474 C 216 462 236 460 250 467 Z" fill="#FFFFFF" stroke="#1E1E1E" stroke-width="2.2" opacity="1" stroke-linecap="round" stroke-linejoin="round"/><path d="M 250 434 C 274 427 292 431 304 444 L 298 474 C 284 462 264 460 250 467 Z" fill="#DCDFE8" stroke="#1E1E1E" stroke-width="2.2" opacity="1" stroke-linecap="round" stroke-linejoin="round"/><line x1="250.0" y1="434.0" x2="250.0" y2="467.0" stroke="#1E1E1E" stroke-width="1.6" opacity="1" stroke-linecap="round"/><line x1="212.0" y1="450.0" x2="240.0" y2="448.0" stroke="#1E1E1E" stroke-width="1" opacity="0.3" stroke-linecap="round"/><line x1="260.0" y1="448.0" x2="288.0" y2="450.0" stroke="#1E1E1E" stroke-width="1" opacity="0.3" stroke-linecap="round"/><line x1="212.0" y1="454.0" x2="240.0" y2="452.0" stroke="#1E1E1E" stroke-width="1" opacity="0.3" stroke-linecap="round"/><line x1="260.0" y1="452.0" x2="288.0" y2="454.0" stroke="#1E1E1E" stroke-width="1" opacity="0.3" stroke-linecap="round"/><line x1="212.0" y1="458.0" x2="240.0" y2="456.0" stroke="#1E1E1E" stroke-width="1" opacity="0.3" stroke-linecap="round"/><line x1="260.0" y1="456.0" x2="288.0" y2="458.0" stroke="#1E1E1E" stroke-width="1" opacity="0.3" stroke-linecap="round"/>
    <rect x="300.0" y="452.0" width="150.0" height="20.0" rx="3" fill="#DCDFE8" stroke="#1E1E1E" stroke-width="2" opacity="1" /><rect x="288.0" y="434.0" width="150.0" height="20.0" rx="3" fill="#FFFFFF" stroke="#1E1E1E" stroke-width="2" opacity="1" /><rect x="310.0" y="416.0" width="150.0" height="20.0" rx="3" fill="#7A85A8" stroke="#1E1E1E" stroke-width="2" opacity="0.85" /><line x1="316.0" y1="462.0" x2="316.0" y2="462.0" stroke="#1E1E1E" stroke-width="0" opacity="1" stroke-linecap="round"/><line x1="316.0" y1="444.0" x2="316.0" y2="444.0" stroke="#1E1E1E" stroke-width="0" opacity="1" stroke-linecap="round"/><line x1="316.0" y1="426.0" x2="316.0" y2="426.0" stroke="#1E1E1E" stroke-width="0" opacity="1" stroke-linecap="round"/>
    <polygon points="378.0,300.0 452.0,326.0 378.0,352.0 304.0,326.0" fill="#7A85A8" stroke="#1E1E1E" stroke-width="2.2" opacity="1" stroke-linejoin="round"/><polygon points="340.0,342.0 340.0,372.0 378.0,384.0 416.0,372.0 416.0,342.0" fill="#DCDFE8" stroke="#1E1E1E" stroke-width="2" opacity="1" stroke-linejoin="round"/><line x1="452.0" y1="326.0" x2="452.0" y2="366.0" stroke="#1E1E1E" stroke-width="2" opacity="1" stroke-linecap="round"/><circle cx="452.0" cy="372.0" r="6.0" fill="#7A85A8" stroke="none" stroke-width="0" opacity="1"/>
  </g>
  <rect x="24.0" y="24.0" width="592.0" height="592.0" rx="30" fill="none" stroke="#1E1E1E" stroke-width="1.5" opacity="0.14" />
</svg>
